<svg width="16" height="13" viewBox="0 0 16 13" fill="none" xmlns="http://www.w3.org/2000/svg">
<path d="M1.08203 6.33575L2.54688 4.29669C2.66016 4.13654 2.79492 4.05841 2.95117 4.06232C3.11133 4.06232 3.24805 4.14044 3.36133 4.29669L4.82031 6.33575C4.96094 6.53107 5 6.70685 4.9375 6.8631C4.87891 7.01544 4.73242 7.09161 4.49805 7.09161H3.61328C3.69922 7.65411 3.87695 8.17755 4.14648 8.66193C4.41992 9.1463 4.76562 9.57208 5.18359 9.93927C5.60547 10.3065 6.08203 10.5916 6.61328 10.7947C7.14844 10.9979 7.7168 11.0994 8.31836 11.0994C8.99023 11.0994 9.61523 10.9705 10.1934 10.7127C10.7754 10.4549 11.2773 10.1053 11.6992 9.66388C11.875 9.51154 12.0508 9.43927 12.2266 9.44708C12.4062 9.45099 12.5586 9.5174 12.6836 9.6463C12.8008 9.7713 12.8574 9.9256 12.8535 10.1092C12.8496 10.2928 12.7656 10.4608 12.6016 10.6131C12.0664 11.1678 11.4297 11.6111 10.6914 11.9432C9.95312 12.2752 9.16211 12.4412 8.31836 12.4412C7.53711 12.4412 6.80078 12.3026 6.10938 12.0252C5.41797 11.7518 4.79688 11.369 4.24609 10.8768C3.69922 10.3885 3.25195 9.82208 2.9043 9.17755C2.56055 8.52911 2.3418 7.8338 2.24805 7.09161H1.4043C1.16602 7.09161 1.01758 7.01349 0.958984 6.85724C0.900391 6.70099 0.941406 6.52716 1.08203 6.33575ZM4.04102 2.05255C4.58008 1.49786 5.21875 1.0545 5.95703 0.722473C6.69531 0.390442 7.48242 0.224426 8.31836 0.224426C9.09961 0.224426 9.83594 0.363098 10.5273 0.640442C11.2227 0.913879 11.8438 1.29669 12.3906 1.78888C12.9414 2.27716 13.3887 2.84552 13.7324 3.49396C14.0801 4.1424 14.3008 4.83771 14.3945 5.5799H15.2266C15.4648 5.5799 15.6133 5.65607 15.6719 5.80841C15.7305 5.96075 15.6895 6.13654 15.5488 6.33575L14.084 8.36896C13.9707 8.52911 13.8359 8.60919 13.6797 8.60919C13.5234 8.60919 13.3887 8.52911 13.2754 8.36896L11.8105 6.3299C11.6699 6.13458 11.6289 5.96075 11.6875 5.80841C11.75 5.65607 11.8984 5.5799 12.1328 5.5799H13.0293C12.9434 5.01349 12.7637 4.4881 12.4902 4.00372C12.2168 3.51935 11.8711 3.09357 11.4531 2.72638C11.0352 2.35919 10.5586 2.07404 10.0234 1.87091C9.49219 1.66388 8.92383 1.56036 8.31836 1.56036C7.6582 1.56036 7.03711 1.69122 6.45508 1.95294C5.87305 2.21075 5.37109 2.55841 4.94922 2.99591C4.77344 3.15216 4.5957 3.22638 4.41602 3.21857C4.23633 3.20685 4.08594 3.13654 3.96484 3.00763C3.84375 2.88654 3.78516 2.73615 3.78906 2.55646C3.79297 2.37286 3.87695 2.2049 4.04102 2.05255Z" fill="#373737"/>
</svg>
