<svg width="32" height="32" viewBox="0 0 32 32" fill="none" xmlns="http://www.w3.org/2000/svg">
<path d="M9.03105 16.15C10.0837 16.15 11.0731 16.3541 11.9991 16.7621C12.9251 17.1622 13.7403 17.7182 14.4447 18.4303C15.1492 19.1424 15.6992 19.9666 16.095 20.9027C16.4907 21.8388 16.6886 22.839 16.6886 23.9031C16.6886 24.5912 16.5976 25.2593 16.4155 25.9074C16.2414 26.5555 15.9881 27.1636 15.6557 27.7317H25.3196C26.5464 27.7317 27.4645 27.4156 28.074 26.7835C28.6913 26.1595 29 25.2233 29 23.9751V13.0776H20.4046C18.9087 13.0776 18.1607 12.3215 18.1607 10.8093V2H12.7114C11.4846 2 10.5626 2.31605 9.94521 2.94814C9.33577 3.58023 9.03105 4.52036 9.03105 5.76854V16.15ZM20.4402 11.4333H28.8575C28.818 11.1853 28.7151 10.9373 28.5489 10.6892C28.3826 10.4412 28.1571 10.1692 27.8721 9.87312L21.3306 3.14016C21.0536 2.85212 20.7884 2.62409 20.5352 2.45607C20.2819 2.28004 20.0326 2.17202 19.7872 2.13202V10.7853C19.7872 11.2173 20.0049 11.4333 20.4402 11.4333ZM9.03105 30C9.84627 30 10.618 29.84 11.3461 29.5199C12.0743 29.1999 12.7154 28.7598 13.2694 28.1997C13.8314 27.6397 14.2706 26.9916 14.5872 26.2555C14.9038 25.5194 15.0621 24.7352 15.0621 23.9031C15.0621 23.063 14.9038 22.2749 14.5872 21.5388C14.2785 20.8027 13.8472 20.1546 13.2932 19.5945C12.7391 19.0344 12.098 18.5984 11.3699 18.2863C10.6417 17.9663 9.8621 17.8063 9.03105 17.8063C8.20791 17.8063 7.43227 17.9663 6.70411 18.2863C5.97595 18.5984 5.33486 19.0384 4.78082 19.6065C4.22679 20.1666 3.79148 20.8147 3.47489 21.5508C3.1583 22.2789 3 23.063 3 23.9031C3 24.7432 3.1583 25.5314 3.47489 26.2675C3.79148 27.0036 4.22679 27.6517 4.78082 28.2117C5.33486 28.7718 5.97595 29.2079 6.70411 29.5199C7.43227 29.84 8.20791 30 9.03105 30ZM9.03105 27.7197C8.80944 27.7197 8.63135 27.6517 8.4968 27.5156C8.37017 27.3796 8.30685 27.2036 8.30685 26.9876V24.6352H5.97991C5.76621 24.6352 5.59209 24.5672 5.45753 24.4312C5.32298 24.3032 5.25571 24.1272 5.25571 23.9031C5.25571 23.6791 5.32298 23.5031 5.45753 23.3751C5.59209 23.239 5.76621 23.171 5.97991 23.171H8.30685V20.8187C8.30685 20.6027 8.37017 20.4266 8.4968 20.2906C8.63135 20.1546 8.80944 20.0866 9.03105 20.0866C9.25266 20.0866 9.42679 20.1546 9.55342 20.2906C9.68798 20.4266 9.75525 20.6027 9.75525 20.8187V23.171H12.0822C12.2959 23.171 12.47 23.239 12.6046 23.3751C12.7391 23.5031 12.8064 23.6791 12.8064 23.9031C12.8064 24.1272 12.7391 24.3032 12.6046 24.4312C12.47 24.5672 12.2959 24.6352 12.0822 24.6352H9.75525V26.9876C9.75525 27.2036 9.68798 27.3796 9.55342 27.5156C9.42679 27.6517 9.25266 27.7197 9.03105 27.7197Z" fill="#000"/>
</svg>
