<svg width="32" height="32" viewBox="0 0 32 32" fill="none" xmlns="http://www.w3.org/2000/svg">
<path d="M15.9883 28.3477C23.043 28.3477 28.7969 22.6055 28.7969 15.5508C28.7969 8.49609 23.043 2.75391 15.9883 2.75391C8.94531 2.75391 3.19141 8.49609 3.19141 15.5508C3.19141 22.6055 8.94531 28.3477 15.9883 28.3477ZM15.6133 17.6484C14.2891 17.6484 13.5508 17.1328 13.5508 16.1602V16.1367C13.5508 15.4102 14.1133 14.8477 14.9688 14.25C15.8828 13.6289 16.4102 13.3477 16.4102 12.7969C16.4102 12.4336 16.0117 12.0469 15.5547 12.0469C15.1797 12.0469 14.8516 12.1641 14.5 12.6328L14.4297 12.7148C14.0898 13.1602 13.5977 13.3477 13.0117 13.3477C12.0742 13.3477 11.4531 12.6328 11.4531 11.8359C11.4531 11.5312 11.5234 11.2852 11.6406 11.0156C12.25 9.73828 13.8906 8.92969 16.0352 8.92969C18.6836 8.92969 20.6992 10.4414 20.6992 12.5508C20.6992 13.8281 20.1953 14.5078 18.8359 15.3398C18.2969 15.6797 17.6992 16.0547 17.4883 16.4883C17.4766 16.5117 17.4648 16.5703 17.4531 16.6289C17.2656 17.2266 16.5508 17.6484 15.6133 17.6484ZM15.625 21.9727C14.4648 21.9727 13.5977 21.3516 13.5977 20.25C13.5977 19.1719 14.4648 18.5273 15.625 18.5273C16.7852 18.5273 17.6055 19.1836 17.6055 20.25C17.6055 21.3516 16.7852 21.9727 15.625 21.9727Z" fill="black"/>
</svg>
