<svg width="39" height="35" viewBox="0 0 39 35" fill="none" xmlns="http://www.w3.org/2000/svg">
<g filter="url(#filter0_d_19_50)">
<path d="M20.6244 3H10.4C8.15979 3 7.03969 3 6.18404 3.43597C5.43139 3.81947 4.81947 4.43139 4.43597 5.18404C4 6.03969 4 7.15979 4 9.4V22.6C4 24.8402 4 25.9603 4.43597 26.816C4.81947 27.5686 5.43139 28.1805 6.18404 28.564C7.03969 29 8.15979 29 10.4 29H20.7753C21.7478 29 22.234 29 22.6919 28.8907C23.0979 28.7938 23.4862 28.634 23.8428 28.417C24.2449 28.1722 24.5902 27.8299 25.2809 27.1453L25.2809 27.1453L31.5943 20.8871C33.1411 19.3539 33.9144 18.5873 34.2174 17.6969C34.4839 16.9133 34.5009 16.0664 34.2658 15.2728C33.9988 14.371 33.2567 13.574 31.7725 11.9802L25.3081 5.03844C24.6086 4.28728 24.2588 3.9117 23.8433 3.64257C23.4749 3.40402 23.0698 3.22771 22.6442 3.12071C22.164 3 21.6508 3 20.6244 3Z" fill="#FFFF00"/>
</g>
<path d="M9.95508 21.1709C10.7412 21.1709 11.1787 20.7676 11.4521 19.7764L11.623 19.1543H14.8359L15.0068 19.8242C15.2529 20.7812 15.6973 21.1709 16.5518 21.1709C17.3926 21.1709 18.001 20.583 18.001 19.7627C18.001 19.4482 17.9463 19.1748 17.8096 18.7988L15.5811 12.7012C15.1367 11.4844 14.4258 10.9648 13.1885 10.9648C12.0332 10.9648 11.3154 11.5049 10.8916 12.7012L8.68359 18.7988C8.55371 19.1475 8.47852 19.5166 8.47852 19.7695C8.47852 20.6445 9.03223 21.1709 9.95508 21.1709ZM12.1699 16.9941L13.1475 13.4121H13.2021L14.2275 16.9941H12.1699Z" fill="black"/>
<path d="M19 10H21M23 10H21M21 10V22M21 22H19M21 22H23" stroke="black" stroke-width="1.5" stroke-linecap="round"/>
<defs>
<filter id="filter0_d_19_50" x="0" y="1" width="38.4305" height="34" filterUnits="userSpaceOnUse" color-interpolation-filters="sRGB">
<feFlood flood-opacity="0" result="BackgroundImageFix"/>
<feColorMatrix in="SourceAlpha" type="matrix" values="0 0 0 0 0 0 0 0 0 0 0 0 0 0 0 0 0 0 127 0" result="hardAlpha"/>
<feOffset dy="2"/>
<feGaussianBlur stdDeviation="2"/>
<feComposite in2="hardAlpha" operator="out"/>
<feColorMatrix type="matrix" values="0 0 0 0 0 0 0 0 0 0 0 0 0 0 0 0 0 0 0.25 0"/>
<feBlend mode="normal" in2="BackgroundImageFix" result="effect1_dropShadow_19_50"/>
<feBlend mode="normal" in="SourceGraphic" in2="effect1_dropShadow_19_50" result="shape"/>
</filter>
</defs>
</svg>
