<svg width="32" height="32" viewBox="0 0 32 32" fill="none" xmlns="http://www.w3.org/2000/svg">
<path d="M5.33333 0C3.56602 0 2.13333 1.43269 2.13333 3.2V28.8C2.13333 30.5673 3.56602 32 5.33333 32H26.6667C28.434 32 29.8667 30.5673 29.8667 28.8V7.02484L22.8418 0H5.33333Z" fill="black"/>
<circle cx="10" cy="13" r="2.5" fill="white" stroke="white"/>
<circle cx="22" cy="13" r="2.5" fill="white" stroke="white"/>
<path fill-rule="evenodd" clip-rule="evenodd" d="M10 18C10.8284 18 11.4755 18.69 11.7466 19.4728C12.3566 21.2348 14.0305 22.5 16 22.5C17.9695 22.5 19.6434 21.2348 20.2534 19.4728C20.5245 18.69 21.1716 18 22 18V18C22.8284 18 23.5156 18.6783 23.3519 19.4904C22.6607 22.9186 19.6318 25.5 16 25.5C12.3682 25.5 9.33929 22.9186 8.64809 19.4904C8.48435 18.6783 9.17157 18 10 18V18Z" fill="white"/>
</svg>
