<svg width="32" height="32" viewBox="0 0 32 32" fill="none" xmlns="http://www.w3.org/2000/svg">
<path d="M7.41016 6.58203H24.5781V6.53516C24.5781 4.60156 22.7852 3.57031 20.5703 3.57031H11.418C9.22656 3.57031 7.41016 4.60156 7.41016 6.53516V6.58203ZM11.0781 31.1328H20.9102C23.3594 31.1328 24.5078 29.9961 24.5078 27.5352V26.5742H25.375C28.1875 26.5742 29.8164 24.957 29.8164 22.1328V13.2148C29.8164 10.3906 28.1875 8.77344 25.375 8.77344H6.61328C3.8125 8.77344 2.17188 10.3906 2.17188 13.2148V22.1328C2.17188 24.957 3.80078 26.5742 6.61328 26.5742H7.49219V27.5352C7.49219 29.9961 8.62891 31.1328 11.0781 31.1328ZM21.0859 13.6484C21.0859 12.6875 21.8945 11.8672 22.8672 11.8672C23.8281 11.8672 24.6484 12.6875 24.6484 13.6484C24.6484 14.6328 23.8398 15.4062 22.8672 15.418C21.8828 15.4297 21.0859 14.6328 21.0859 13.6484ZM11.1484 27.957C10.8672 27.957 10.6914 27.793 10.6914 27.5V19.8242C10.6914 19.5312 10.8672 19.3789 11.1484 19.3789H20.8516C21.1328 19.3789 21.2969 19.5312 21.2969 19.8242V27.5C21.2969 27.793 21.1328 27.957 20.8516 27.957H11.1484ZM12.9883 23.0117H19.0352C19.668 23.0117 20.1484 22.5078 20.1484 21.8867C20.1484 21.2656 19.668 20.7852 19.0352 20.7852H12.9883C12.3438 20.7852 11.8633 21.2656 11.8633 21.8867C11.8633 22.5078 12.3555 23.0117 12.9883 23.0117ZM12.9883 26.5273H19.0352C19.668 26.5273 20.1484 26.0469 20.1484 25.4375C20.1484 24.8047 19.668 24.3008 19.0352 24.3008H12.9883C12.3555 24.3008 11.8633 24.8047 11.8633 25.4375C11.8633 26.0469 12.3438 26.5273 12.9883 26.5273Z" fill="black"/>
</svg>
