<svg width="41" height="38" viewBox="0 0 41 38" fill="none" xmlns="http://www.w3.org/2000/svg">
<g filter="url(#filter0_d_19_50)">
<path d="M21.6979 4.5H12.4C10.1598 4.5 9.03969 4.5 8.18404 4.93597C7.43139 5.31947 6.81947 5.93139 6.43597 6.68404C6 7.53969 6 8.65979 6 10.9V23.1C6 25.3402 6 26.4603 6.43597 27.316C6.81947 28.0686 7.43139 28.6805 8.18404 29.064C9.03969 29.5 10.1598 29.5 12.4 29.5H21.849C22.8274 29.5 23.3166 29.5 23.7769 29.3895C24.1851 29.2915 24.5753 29.1299 24.9331 28.9106C25.3368 28.6632 25.6827 28.3173 26.3745 27.6255L32.1519 21.8481C33.6797 20.3203 34.4436 19.5564 34.7431 18.6707C35.0068 17.8912 35.0236 17.0494 34.7913 16.26C34.5274 15.363 33.7947 14.5692 32.3292 12.9816L26.4006 6.55901C25.7004 5.80041 25.3503 5.42111 24.9333 5.14926C24.5637 4.90829 24.1568 4.73013 23.729 4.622C23.2464 4.5 22.7303 4.5 21.6979 4.5Z" fill="#FFFF00"/>
</g>
<path d="M10.9551 22.1709C11.7412 22.1709 12.1787 21.7676 12.4521 20.7764L12.623 20.1543H15.8359L16.0068 20.8242C16.2529 21.7812 16.6973 22.1709 17.5518 22.1709C18.3926 22.1709 19.001 21.583 19.001 20.7627C19.001 20.4482 18.9463 20.1748 18.8096 19.7988L16.5811 13.7012C16.1367 12.4844 15.4258 11.9648 14.1885 11.9648C13.0332 11.9648 12.3154 12.5049 11.8916 13.7012L9.68359 19.7988C9.55371 20.1475 9.47852 20.5166 9.47852 20.7695C9.47852 21.6445 10.0322 22.1709 10.9551 22.1709ZM13.1699 17.9941L14.1475 14.4121H14.2021L15.2275 17.9941H13.1699Z" fill="black"/>
<path d="M20 11H22M24 11H22M22 11V23M22 23H20M22 23H24" stroke="black" stroke-width="2" stroke-linecap="round"/>
<defs>
<filter id="filter0_d_19_50" x="0" y="0.5" width="40.954" height="37" filterUnits="userSpaceOnUse" color-interpolation-filters="sRGB">
<feFlood flood-opacity="0" result="BackgroundImageFix"/>
<feColorMatrix in="SourceAlpha" type="matrix" values="0 0 0 0 0 0 0 0 0 0 0 0 0 0 0 0 0 0 127 0" result="hardAlpha"/>
<feOffset dy="2"/>
<feGaussianBlur stdDeviation="3"/>
<feComposite in2="hardAlpha" operator="out"/>
<feColorMatrix type="matrix" values="0 0 0 0 0 0 0 0 0 0 0 0 0 0 0 0 0 0 0.25 0"/>
<feBlend mode="normal" in2="BackgroundImageFix" result="effect1_dropShadow_19_50"/>
<feBlend mode="normal" in="SourceGraphic" in2="effect1_dropShadow_19_50" result="shape"/>
</filter>
</defs>
</svg>
