<svg width="32" height="32" viewBox="0 0 32 32" fill="none" xmlns="http://www.w3.org/2000/svg">
<path d="M3.19141 17.5391C3.19141 24.582 8.94531 30.3359 15.9883 30.3359C23.043 30.3359 28.7969 24.582 28.7969 17.5391C28.7969 14.3984 27.3438 10.5898 25.2109 8.69141C24.0859 7.67188 22.8555 7.64844 22.0469 8.46875C21.1328 9.41797 21.4375 10.6719 22.2695 11.6445C23.7695 13.3203 24.6133 15.2422 24.625 17.5391C24.625 22.3086 20.7578 26.1641 15.9883 26.1641C11.2188 26.1641 7.36328 22.3086 7.36328 17.5391C7.36328 13.8359 9.67188 10.707 12.9297 9.46484V11.0938C12.9297 12.2656 13.9961 12.6406 15.0742 11.8438L19.9023 8.26953C20.7461 7.64844 20.7227 6.60547 19.9023 5.99609L15.0742 2.42187C14.0195 1.63672 12.9297 1.96484 12.9297 3.16016V5.11719C7.33984 6.47656 3.19141 11.5391 3.19141 17.5391Z" fill="black"/>
</svg>
